<svg xmlns="http://www.w3.org/2000/svg">
    <defs>
        <symbol viewBox="0 0 24 24" id="icon_users">
            <path fill-rule="evenodd" clip-rule="evenodd" d="m1 15 4-1h8a5 5 0 0 1 5 5v2a1 1 0 1 1-2 0v-2a3 3 0 0 0-3-3H5a3 3 0 0 0-3 3v2a1 1 0 1 1-2 0v-2l1-4ZM9 4a3 3 0 1 0 0 6 3 3 0 0 0 0-6ZM4 7a5 5 0 1 1 10 0A5 5 0 0 1 4 7ZM19 15l1-1a5 5 0 0 1 4 5v2a1 1 0 1 1-2 0v-2a3 3 0 0 0-2-3l-1-1ZM15 3l1-1a5 5 0 0 1 0 10 1 1 0 0 1 0-2 3 3 0 0 0 0-6l-1-1Z" fill="currentColor"/>
        </symbol>
        <symbol viewBox="0 0 24 24" id="icon_close">
            <path fill-rule="evenodd" clip-rule="evenodd" d="M19 5v2L7 19a1 1 0 0 1-2-2L17 5h2Z" fill="currentColor"/>
            <path fill-rule="evenodd" clip-rule="evenodd" d="M5 5h2l12 12a1 1 0 0 1-2 2L5 7V5Z" fill="currentColor"/>
        </symbol>
        <symbol viewBox="0 0 24 24" id="icon_check">
            <path fill-rule="evenodd" clip-rule="evenodd" d="M21 5v2L10 18H8l-5-5a1 1 0 1 1 2-2l4 5L19 5h2Z" fill="currentColor"/>
        </symbol>
        <symbol viewBox="0 0 15 13" fill="currentColor" id="icon_checkbox-check">
            <path d="m2 8 3 3 8-9" stroke="currentColor" stroke-width="3" stroke-linecap="round" stroke-linejoin="round"/>
        </symbol>
    </defs>
</svg>
